# xmcd
#
# Track frame offsets: 
#        150
#        20117
#        42610
#        59305
#        73625
#        94137
#        113797
#        133067
#        146882
#        167992
#        186680
#        218392
#        233052
#        253942
#        271517
#        293230
#
# Disc length: 4058 seconds
#
# Revision: 0
# Processed by: cddbd v1.5PL3 Copyright (c) Steve Scherf et al.
# Submitted via: ExactAudioCopy v0.95a4
#
DISCID=fe0fd810
DTITLE=范晓萱 MAVIS - 我要我们在一起
DYEAR=1900
DGENRE=Pop
TTITLE0=我要我们在一起
TTITLE1=SOMETIMES
TTITLE2=我是真得很开心
TTITLE3=失败的MAN
TTITLE4=都是你
TTITLE5=过期
TTITLE6=想你
TTITLE7=飞机上的几个小时
TTITLE8=看不见
TTITLE9=都是你
TTITLE10=咖啡+冰淇淋的祈祷
TTITLE11=Darling
TTITLE12=数字恋爱
TTITLE13=自言自语
TTITLE14=眼泪
TTITLE15=Salvation
EXTD=
EXTT0=
EXTT1=
EXTT2=
EXTT3=
EXTT4=
EXTT5=
EXTT6=
EXTT7=
EXTT8=
EXTT9=
EXTT10=
EXTT11=
EXTT12=
EXTT13=
EXTT14=
EXTT15=
PLAYORDER=
